<?xml version="1.0" encoding="UTF-8"?><svg id="_レイヤー_1" xmlns="http://www.w3.org/2000/svg" viewBox="0 0 188.82 62.16"><defs><style>.cls-1{fill:gray;}.cls-1,.cls-2{stroke-width:0px;}.cls-2{fill:#fff;}</style></defs><path class="cls-2" d="M73.23,30.06v21.56h-3.25v-21.56h3.25Z"/><path class="cls-2" d="M75.53,38.02h3.14v1.26c.6-.63,1.12-1.06,1.55-1.28.46-.23,1.03-.35,1.72-.35,1.54,0,2.75.67,3.64,2.01.99-1.34,2.32-2.01,4.01-2.01,3.06,0,4.59,1.86,4.59,5.57v8.41h-3.16v-7.55c0-1.3-.16-2.23-.47-2.76-.33-.55-.86-.82-1.61-.82-.87,0-1.5.33-1.89.98-.4.65-.59,1.7-.59,3.14v7.02h-3.16v-7.51c0-2.42-.7-3.63-2.09-3.63-.88,0-1.53.33-1.93.99-.41.66-.61,1.7-.61,3.13v7.02h-3.14v-13.6Z"/><path class="cls-2" d="M99.57,59.02h-3.14v-21h3.14v1.48c1.24-1.24,2.64-1.86,4.22-1.86,1.87,0,3.41.69,4.62,2.07,1.23,1.37,1.84,3.1,1.84,5.18s-.61,3.74-1.83,5.1c-1.21,1.35-2.74,2.02-4.58,2.02-1.59,0-3.02-.64-4.27-1.91v8.92ZM107.04,44.9c0-1.3-.35-2.36-1.06-3.18-.72-.83-1.62-1.24-2.71-1.24-1.15,0-2.09.4-2.81,1.2-.72.8-1.08,1.85-1.08,3.16s.36,2.33,1.08,3.16c.71.81,1.64,1.21,2.79,1.21,1.09,0,1.99-.41,2.69-1.23.73-.82,1.09-1.84,1.09-3.07Z"/><path class="cls-2" d="M115,38.02v7.81c0,2.25.89,3.38,2.67,3.38s2.67-1.13,2.67-3.38v-7.81h3.14v7.88c0,1.09-.13,2.03-.4,2.82-.26.71-.71,1.35-1.35,1.91-1.06.92-2.41,1.38-4.05,1.38s-2.97-.46-4.04-1.38c-.65-.57-1.11-1.21-1.38-1.91-.26-.63-.39-1.57-.39-2.82v-7.88h3.14Z"/><path class="cls-2" d="M129.54,40.95v10.67h-3.14v-10.67h-1.34v-2.93h1.34v-4.98h3.14v4.98h2.44v2.93h-2.44Z"/><path class="cls-2" d="M143,38.02h3.16v13.6h-3.16v-1.42c-1.29,1.21-2.69,1.82-4.18,1.82-1.88,0-3.43-.68-4.66-2.04-1.22-1.39-1.83-3.12-1.83-5.19s.61-3.74,1.83-5.1c1.22-1.36,2.75-2.04,4.58-2.04,1.58,0,3,.65,4.26,1.96v-1.58ZM135.54,44.77c0,1.3.35,2.36,1.05,3.18.72.83,1.62,1.24,2.71,1.24,1.16,0,2.1-.4,2.82-1.2.72-.83,1.08-1.88,1.08-3.16s-.36-2.33-1.08-3.16c-.72-.81-1.65-1.21-2.79-1.21-1.08,0-1.98.41-2.71,1.23-.72.83-1.08,1.85-1.08,3.07Z"/><path class="cls-2" d="M152.22,40.95v10.67h-3.14v-10.67h-1.34v-2.93h1.34v-4.98h3.14v4.98h2.44v2.93h-2.44Z"/><path class="cls-2" d="M159.37,38.02v13.6h-3.14v-13.6h3.14Z"/><path class="cls-2" d="M159.35,38.02v13.6h-3.14v-13.6h3.14Z"/><path class="cls-1" d="M155.73,32.18c0-.55.2-1.02.6-1.42s.88-.6,1.44-.6,1.05.2,1.45.6c.4.39.6.87.6,1.44s-.2,1.05-.6,1.45c-.39.4-.87.6-1.44.6s-1.05-.2-1.45-.6c-.4-.4-.6-.89-.6-1.47Z"/><path class="cls-2" d="M160.99,44.72c0-1.96.7-3.64,2.11-5.01,1.41-1.38,3.12-2.07,5.14-2.07s3.75.69,5.17,2.08c1.4,1.39,2.09,3.09,2.09,5.11s-.7,3.75-2.11,5.12c-1.42,1.37-3.15,2.05-5.21,2.05s-3.75-.7-5.12-2.09c-1.38-1.38-2.07-3.11-2.07-5.19ZM164.2,44.77c0,1.36.36,2.43,1.09,3.23.74.8,1.73,1.2,2.95,1.2s2.21-.4,2.95-1.19c.74-.79,1.1-1.85,1.1-3.17s-.37-2.38-1.1-3.17c-.74-.8-1.73-1.2-2.95-1.2s-2.17.4-2.92,1.2c-.74.8-1.12,1.83-1.12,3.1Z"/><path class="cls-2" d="M177.1,38.02h3.16v1.26c1.1-1.09,2.34-1.63,3.71-1.63,1.58,0,2.82.5,3.7,1.49.76.85,1.15,2.23,1.15,4.15v8.34h-3.16v-7.6c0-1.34-.19-2.27-.56-2.78-.36-.52-1.02-.78-1.98-.78-1.04,0-1.78.34-2.22,1.03-.43.68-.64,1.87-.64,3.56v6.56h-3.16v-13.6Z"/><path class="cls-2" d="M59.99,26.98c-3.03-1.98-6.82-2.3-10.14-.85l-13.78,6.01,1.65,3.65,13.73-5.99c2.11-.92,4.43-.72,6.35.54,1.93,1.26,3.03,3.31,3.03,5.61s-1.11,4.35-3.03,5.61c-1.93,1.26-4.24,1.46-6.35.53L14.98,26.12c-3.32-1.45-7.11-1.13-10.14.85-3.03,1.98-4.84,5.33-4.84,8.96s1.81,6.97,4.84,8.96c.77.5,1.59.88,2.44,1.17l1.27-3.78c-.54-.16-1.07-.43-1.52-.73-1.93-1.26-3.03-3.31-3.03-5.61s1.1-4.35,3.03-5.61c1.12-.74,2.38-1.11,3.65-1.11.91,0,1.82.19,2.7.57l36.47,15.95c1.38.6,2.83.9,4.29.9,2.05,0,4.08-.59,5.86-1.75,3.03-1.98,4.84-5.33,4.84-8.96s-1.81-6.97-4.84-8.96Z"/><path class="cls-2" d="M39.49,27.04c2.16-.98,3.85-2.76,4.69-4.98s.76-4.64-.22-6.8l-4.48-9.92c-1-2.21-2.8-3.9-5.07-4.75-2.27-.85-4.73-.77-6.94.22-2.21,1-3.9,2.8-4.75,5.07-.85,2.27-.78,4.73.22,6.94l9.47,20.93,5.48,2.41-11.3-24.99c-.56-1.23-.6-2.61-.12-3.88.48-1.27,1.42-2.27,2.66-2.83,1.24-.56,2.61-.6,3.88-.12,1.27.48,2.27,1.42,2.83,2.66l4.48,9.92c.54,1.19.58,2.52.12,3.74-.46,1.22-1.41,2.21-2.61,2.75l1.66,3.64Z"/><circle class="cls-1" cx="38.54" cy="25.27" r="2.01"/><polygon class="cls-2" points="18.52 39.83 14.05 41.78 15.67 45.44 20.16 43.48 18.52 39.83"/><polygon class="cls-2" points="31.19 38.67 26.2 36.48 23.12 37.82 24.77 41.47 31.19 38.67"/><circle class="cls-1" cx="8.12" cy="44.23" r="2.01"/><circle class="cls-1" cx="14.73" cy="43.67" r="2.01"/><path class="cls-2" d="M18.57,37.48l3.64-1.65,8.75,19.34c.56,1.23,1.56,2.18,2.83,2.66s2.65.43,3.88-.12c2.55-1.15,3.68-4.17,2.53-6.71l-4.72-10.44,5.48,2.4,2.89,6.39c1,2.21,1.08,4.67.22,6.94s-2.54,4.07-4.75,5.07c-1.19.54-2.46.81-3.74.81-1.08,0-2.16-.2-3.21-.59-2.27-.86-4.07-2.54-5.06-4.75l-8.75-19.34"/><circle class="cls-1" cx="20.33" cy="36.51" r="2.01"/><path class="cls-2" d="M76.24,12.86v14.11h-2.48v-14.11h-3.78v-2.33h10.03v2.33h-3.77Z"/><path class="cls-2" d="M80.53,18.68c0-2.31.85-4.3,2.54-5.96,1.69-1.66,3.72-2.49,6.09-2.49s4.35.84,6.03,2.51c1.68,1.68,2.52,3.69,2.52,6.04s-.84,4.37-2.53,6.02c-1.7,1.65-3.74,2.48-6.14,2.48-2.12,0-4.03-.73-5.72-2.2-1.86-1.63-2.79-3.75-2.79-6.39ZM83.04,18.71c0,1.82.61,3.31,1.83,4.48,1.21,1.17,2.62,1.76,4.21,1.76,1.72,0,3.18-.6,4.37-1.79,1.19-1.21,1.78-2.68,1.78-4.41s-.59-3.22-1.76-4.41c-1.16-1.19-2.6-1.79-4.32-1.79s-3.16.6-4.33,1.79c-1.18,1.18-1.77,2.63-1.77,4.37Z"/><path class="cls-2" d="M108.86,18.41h6.79v.54c0,1.23-.15,2.33-.44,3.28-.28.88-.76,1.7-1.44,2.47-1.53,1.72-3.47,2.58-5.82,2.58s-4.27-.83-5.91-2.49c-1.64-1.67-2.46-3.67-2.46-6s.83-4.41,2.5-6.07c1.67-1.67,3.7-2.5,6.09-2.5,1.28,0,2.48.26,3.6.79,1.06.53,2.11,1.38,3.14,2.56l-1.77,1.69c-1.35-1.8-2.99-2.69-4.93-2.69-1.74,0-3.2.6-4.38,1.8-1.18,1.18-1.77,2.65-1.77,4.43s.66,3.34,1.97,4.52c1.23,1.1,2.56,1.65,3.99,1.65,1.22,0,2.32-.41,3.29-1.24.97-.83,1.52-1.82,1.63-2.98h-4.1v-2.33Z"/><path class="cls-2" d="M117.51,18.68c0-2.31.85-4.3,2.54-5.96,1.69-1.66,3.72-2.49,6.09-2.49s4.35.84,6.03,2.51c1.68,1.68,2.52,3.69,2.52,6.04s-.84,4.37-2.53,6.02c-1.7,1.65-3.74,2.48-6.14,2.48-2.12,0-4.03-.73-5.72-2.2-1.86-1.63-2.79-3.75-2.79-6.39ZM120.01,18.71c0,1.82.61,3.31,1.83,4.48,1.21,1.17,2.62,1.76,4.21,1.76,1.72,0,3.18-.6,4.37-1.79,1.19-1.21,1.78-2.68,1.78-4.41s-.59-3.22-1.76-4.41c-1.16-1.19-2.6-1.79-4.32-1.79s-3.16.6-4.33,1.79c-1.18,1.18-1.77,2.63-1.77,4.37Z"/></svg>